nColumns=19
nRows=37
DataType=double
version=3
OpenSimVersion=4.1
endheader
time	ground_force_calcn_r_vx	ground_force_calcn_r_vy	ground_force_calcn_r_vz	ground_force_calcn_r_px	ground_force_calcn_r_py	ground_force_calcn_r_pz	ground_force_calcn_r_mx	ground_force_calcn_r_my	ground_force_calcn_r_mz	ground_force_calcn_l_vx	ground_force_calcn_l_vy	ground_force_calcn_l_vz	ground_force_calcn_l_px	ground_force_calcn_l_py	ground_force_calcn_l_pz	ground_force_calcn_l_mx	ground_force_calcn_l_my	ground_force_calcn_l_mz
9.9	2.79599	275.606	-36.8826	-0.259546	0	-0.40811	-0.0108649	-1.07098	0.143322	1.93015	203.184	32.3326	-0.25535	0	-0.762769	0.0092346	0.972109	0.154692
9.91	2.78045	268.501	-35.9683	-0.259747	0	-0.40806	-0.0102258	-0.987486	0.132283	1.75418	198.801	31.6748	-0.254899	0	-0.763078	0.00815144	0.923801	0.147188
9.92	2.72886	261.938	-35.0711	-0.25992	0	-0.408019	-0.0094403	-0.906153	0.121326	1.59709	195.339	31.1353	-0.254506	0	-0.763366	0.00715625	0.875281	0.139512
9.93	2.63162	255.985	-34.1982	-0.260061	0	-0.407989	-0.0085073	-0.827528	0.110553	1.45338	192.822	30.7286	-0.254179	0	-0.763633	0.00623246	0.826869	0.131772
9.94	2.48515	250.688	-33.353	-0.260171	0	-0.407976	-0.00745559	-0.752077	0.100061	1.319	191.248	30.465	-0.253916	0	-0.763881	0.00537177	0.778879	0.124072
9.95	2.29325	246.068	-32.5353	-0.260254	0	-0.407984	-0.00633777	-0.680051	0.0899169	1.19179	190.599	30.3498	-0.253717	0	-0.764109	0.00457537	0.731728	0.116516
9.96	2.06522	242.124	-31.7417	-0.260318	0	-0.408014	-0.00521571	-0.611483	0.0801636	1.07177	190.837	30.3816	-0.253574	0	-0.764322	0.00385213	0.685902	0.109197
9.97	1.81377	238.83	-30.9675	-0.260372	0	-0.408067	-0.00414827	-0.546227	0.0708258	0.963059	191.901	30.5495	-0.253488	0	-0.764516	0.00322111	0.641846	0.102178
9.98	1.55269	236.14	-30.2091	-0.260422	0	-0.408145	-0.0031829	-0.48407	0.0619264	0.875813	193.713	30.8336	-0.253462	0	-0.764687	0.00271202	0.599847	0.0954784
9.99	1.29489	233.998	-29.4651	-0.260475	0	-0.408246	-0.00235136	-0.42491	0.0535048	0.827411	196.179	31.2059	-0.253513	0	-0.764828	0.00236172	0.559965	0.0890728
10	1.05385	232.338	-28.7371	-0.260537	0	-0.408364	-0.00167343	-0.368933	0.0456321	0.840668	199.197	31.6347	-0.253659	0	-0.764932	0.00220357	0.52214	0.0829214
10.01	0.844094	231.1	-28.029	-0.260609	0	-0.408496	-0.00115638	-0.3166	0.0383988	0.938975	202.668	32.0869	-0.253917	0	-0.76499	0.00225292	0.486271	0.0769874
10.02	0.678774	230.235	-27.3478	-0.260694	0	-0.408634	-0.000791676	-0.268531	0.0318966	1.14079	206.501	32.5303	-0.254301	0	-0.764997	0.00249867	0.452298	0.0712508
10.03	0.566932	229.717	-26.7042	-0.260792	0	-0.40877	-0.000556196	-0.225367	0.0261985	1.45583	210.611	32.9351	-0.254817	0	-0.76495	0.00290497	0.420254	0.0657188
10.04	0.512859	229.549	-26.1118	-0.260901	0	-0.408899	-0.000419323	-0.187683	0.0213495	1.88328	214.917	33.2752	-0.255461	0	-0.764847	0.0034194	0.390218	0.0604167
10.05	0.518789	229.761	-25.5861	-0.261029	0	-0.409016	-0.000352395	-0.156069	0.0173797	2.41284	219.336	33.529	-0.25622	0	-0.764688	0.0039861	0.362351	0.0553912
10.06	0.587118	230.411	-25.1442	-0.261184	0	-0.40912	-0.000333864	-0.131023	0.0142982	3.02738	223.78	33.6808	-0.257075	0	-0.764475	0.00455818	0.336935	0.0507116
10.07	0.719751	231.572	-24.804	-0.261376	0	-0.409209	-0.000350701	-0.112834	0.0120858	3.70427	228.16	33.7228	-0.258005	0	-0.764212	0.00510391	0.314368	0.0464648
10.08	0.915262	233.331	-24.582	-0.261608	0	-0.40928	-0.00039855	-0.101604	0.0107042	4.41715	232.389	33.6567	-0.258987	0	-0.76391	0.00561265	0.295285	0.0427658
10.09	1.1672	235.766	-24.4918	-0.261881	0	-0.409331	-0.000482062	-0.0973728	0.0101153	5.13852	236.383	33.493	-0.259998	0	-0.763578	0.00610228	0.280719	0.0397748
10.1	1.46452	238.941	-24.5415	-0.262185	0	-0.40936	-0.000613645	-0.100118	0.0102831	5.84047	240.068	33.2505	-0.261015	0	-0.763227	0.00662125	0.272161	0.0376956
10.11	1.79354	242.895	-24.7347	-0.262513	0	-0.409369	-0.000811163	-0.109854	0.0111867	6.49566	243.375	32.9534	-0.262012	0	-0.762869	0.00724135	0.271315	0.0367363
10.12	2.13958	247.638	-25.0716	-0.262856	0	-0.409357	-0.00109375	-0.126592	0.0128166	7.07874	246.252	32.6286	-0.262963	0	-0.762515	0.00804519	0.279872	0.0370833
10.13	2.48764	253.149	-25.5492	-0.263199	0	-0.409324	-0.0014764	-0.150243	0.0151634	7.56537	248.654	32.3024	-0.26384	0	-0.762178	0.00910394	0.299223	0.0388718
10.14	2.82379	259.383	-26.1617	-0.26353	0	-0.409273	-0.00196538	-0.180532	0.0182087	7.9337	250.558	31.9972	-0.264616	0	-0.761868	0.0104598	0.330337	0.0421853
10.15	3.13499	266.27	-26.9008	-0.263835	0	-0.409204	-0.00255393	-0.216917	0.0219148	8.16682	251.957	31.7297	-0.265269	0	-0.761596	0.0121128	0.373695	0.0470605
10.16	3.40693	273.724	-27.7561	-0.264095	0	-0.409117	-0.00321801	-0.258545	0.026217	8.25243	252.877	31.5128	-0.26578	0	-0.761365	0.0140109	0.429331	0.0535021
10.17	3.6243	281.65	-28.7161	-0.264297	0	-0.409012	-0.00391542	-0.304274	0.0310228	8.18237	253.368	31.3556	-0.266132	0	-0.761183	0.016042	0.496742	0.0614744
10.18	3.7718	289.945	-29.7685	-0.264425	0	-0.40889	-0.00458902	-0.352767	0.0362184	7.9535	253.507	31.2653	-0.266312	0	-0.761051	0.0180341	0.574811	0.0708922
10.19	3.83675	298.506	-30.8989	-0.26447	0	-0.40875	-0.00517455	-0.402589	0.0416727	7.56796	253.386	31.2477	-0.266309	0	-0.760972	0.0197707	0.66195	0.0816319
10.2	3.81172	307.231	-32.0905	-0.264428	0	-0.408597	-0.00561225	-0.452357	0.0472491	7.03383	253.1	31.3055	-0.266124	0	-0.760945	0.0210165	0.756242	0.0935383
10.21	3.69517	316.021	-33.3258	-0.264303	0	-0.408433	-0.00585705	-0.500911	0.0528231	6.36586	252.738	31.4389	-0.265764	0	-0.76097	0.0215524	0.855676	0.10644
10.22	3.49197	324.78	-34.5864	-0.264106	0	-0.408263	-0.00588517	-0.547366	0.05829	5.58567	252.379	31.6448	-0.265245	0	-0.761042	0.0212109	0.958377	0.120167
10.23	3.21368	333.411	-35.8553	-0.263851	0	-0.408095	-0.00569861	-0.591216	0.0635799	4.72164	252.084	31.9176	-0.264591	0	-0.761156	0.0199037	1.06264	0.134546
10.24	2.87703	341.816	-37.1178	-0.263554	0	-0.40793	-0.00532246	-0.632355	0.0686673	3.80719	251.897	32.2494	-0.263832	0	-0.761301	0.0176369	1.16692	0.149396
10.25	2.5019	349.892	-38.3623	-0.263235	0	-0.407771	-0.0047978	-0.670976	0.073566	2.87711	251.845	32.6309	-0.262998	0	-0.761468	0.0145066	1.26982	0.164527
10.26	2.10886	357.528	-39.5806	-0.262907	0	-0.407621	-0.00417256	-0.707399	0.0783136	1.96394	251.927	33.0516	-0.262118	0	-0.761649	0.0106815	1.37018	0.179761
